<svg width="20" height="20" viewBox="0 0 20 20" fill="none" xmlns="http://www.w3.org/2000/svg">
    <g clip-path="url(#clip0_2_2408)">
        <path
            d="M18.3571 9.92288C18.3584 9.74443 18.3224 9.56767 18.2516 9.40387C18.1807 9.24007 18.0766 9.0928 17.9457 8.97145L10 1.64288L2.05431 8.97145C1.92346 9.0928 1.8193 9.24007 1.74847 9.40387C1.67763 9.56767 1.64167 9.74443 1.64288 9.92288V17.0715C1.64288 17.4124 1.77834 17.7395 2.01946 17.9806C2.26058 18.2217 2.58761 18.3572 2.92859 18.3572H17.0714C17.4124 18.3572 17.7395 18.2217 17.9806 17.9806C18.2218 17.7395 18.3571 17.4124 18.3571 17.0715V9.92288Z"
            stroke="#0CA789" stroke-width="2" stroke-linecap="round" stroke-linejoin="round" />
        <path d="M10 18.3572V13.2143" stroke="#0CA789" stroke-width="2" stroke-linecap="round"
            stroke-linejoin="round" />
    </g>
    <defs>
        <clipPath id="clip0_2_2408">
            <rect width="20" height="20" fill="white" />
        </clipPath>
    </defs>
</svg>