<svg width="20" height="20" viewBox="0 0 20 20" fill="none" xmlns="http://www.w3.org/2000/svg">
    <g clip-path="url(#clip0_2_2442)">
        <path
            d="M12.8929 7.42859C14.3421 7.42859 15.732 8.00429 16.7567 9.02905C17.7814 10.0538 18.3572 11.4437 18.3572 12.8929C18.3606 13.9685 18.0427 15.0206 17.4443 15.9143L18.3572 18.3572L15.2843 17.8043C14.5453 18.1647 13.7345 18.3537 12.9123 18.3572C12.0902 18.3606 11.2778 18.1784 10.5358 17.8244C9.79375 17.4703 9.14121 16.9532 8.62677 16.3118C8.11233 15.6705 7.74924 14.9213 7.56459 14.1201C7.37993 13.3189 7.37844 12.4864 7.56026 11.6846C7.74207 10.8827 8.10248 10.1323 8.61463 9.48908C9.12678 8.84588 9.77748 8.32657 10.5182 7.96981C11.259 7.61305 12.0707 7.42805 12.8929 7.42859Z"
            stroke="#4F4F4F" stroke-width="2" stroke-linecap="round" stroke-linejoin="round" />
        <path
            d="M13.6772 4.22719C12.8114 3.12542 11.6235 2.32105 10.2791 1.92607C8.93461 1.53109 7.50044 1.56516 6.17626 2.02353C4.85208 2.48191 3.70378 3.34177 2.89122 4.4834C2.07867 5.62503 1.64232 6.99163 1.64291 8.3929C1.63893 9.7249 2.03291 11.0277 2.77434 12.1343L1.64291 15.1428L4.36862 14.6543"
            stroke="#4F4F4F" stroke-width="2" stroke-linecap="round" stroke-linejoin="round" />
    </g>
    <defs>
        <clipPath id="clip0_2_2442">
            <rect width="20" height="20" fill="white" />
        </clipPath>
    </defs>
</svg>