<svg width="21" height="20" viewBox="0 0 21 20" fill="none" xmlns="http://www.w3.org/2000/svg">
    <path
        d="M5.6786 8.71431C7.63131 8.71431 9.21431 7.13131 9.21431 5.1786C9.21431 3.22588 7.63131 1.64288 5.6786 1.64288C3.72588 1.64288 2.14288 3.22588 2.14288 5.1786C2.14288 7.13131 3.72588 8.71431 5.6786 8.71431Z"
        stroke="#4F4F4F" stroke-width="2" stroke-linecap="round" stroke-linejoin="round" />
    <path
        d="M15.3215 8.71431C17.2742 8.71431 18.8572 7.13131 18.8572 5.1786C18.8572 3.22588 17.2742 1.64288 15.3215 1.64288C13.3688 1.64288 11.7858 3.22588 11.7858 5.1786C11.7858 7.13131 13.3688 8.71431 15.3215 8.71431Z"
        stroke="#4F4F4F" stroke-width="2" stroke-linecap="round" stroke-linejoin="round" />
    <path
        d="M5.6786 18.3572C7.63131 18.3572 9.21431 16.7742 9.21431 14.8215C9.21431 12.8688 7.63131 11.2858 5.6786 11.2858C3.72588 11.2858 2.14288 12.8688 2.14288 14.8215C2.14288 16.7742 3.72588 18.3572 5.6786 18.3572Z"
        stroke="#4F4F4F" stroke-width="2" stroke-linecap="round" stroke-linejoin="round" />
    <path
        d="M15.3215 18.3572C17.2742 18.3572 18.8572 16.7742 18.8572 14.8215C18.8572 12.8688 17.2742 11.2858 15.3215 11.2858C13.3688 11.2858 11.7858 12.8688 11.7858 14.8215C11.7858 16.7742 13.3688 18.3572 15.3215 18.3572Z"
        stroke="#4F4F4F" stroke-width="2" stroke-linecap="round" stroke-linejoin="round" />
</svg>