<svg width="21" height="20" viewBox="0 0 21 20" fill="none" xmlns="http://www.w3.org/2000/svg">
    <path
        d="M15.3214 8.07146C17.0966 8.07146 18.5357 6.63237 18.5357 4.85717C18.5357 3.08197 17.0966 1.64288 15.3214 1.64288C13.5462 1.64288 12.1071 3.08197 12.1071 4.85717C12.1071 6.63237 13.5462 8.07146 15.3214 8.07146Z"
        stroke="#0CA789" fill="#0CA789" stroke-width="2" stroke-linecap="round" stroke-linejoin="round" />
    <path
        d="M14.2705 11.2858V13.2575C14.2705 13.7604 14.4703 14.2426 14.8259 14.5983C15.1814 14.9538 15.7829 15.1536 16.2857 15.1536H2.14285C2.64573 15.1536 3.24713 14.9538 3.60272 14.5983C3.95829 14.2426 4.15807 13.7604 4.15807 13.2575L4.15806 8.6277C4.15806 7.28671 4.69077 6.00064 5.63899 5.05241C6.58722 4.10418 7.87329 3.57147 9.21428 3.57147"
        stroke="#4F4F4F" stroke-width="2" stroke-linecap="round" stroke-linejoin="round" />
    <path d="M7.92856 18.3572H10.5" stroke="#4F4F4F" stroke-width="2" stroke-linecap="round"
        stroke-linejoin="round" />
</svg>